<svg width="136" height="29" viewBox="0 0 136 29" fill="none" xmlns="http://www.w3.org/2000/svg">
<path d="M0.55603 28V2.79999H12.076C14.428 2.79999 16.288 3.35199 17.656 4.45599C19.048 5.55999 19.744 7.41999 19.744 10.036C19.744 12.652 19.048 14.524 17.656 15.652C16.288 16.78 14.428 17.344 12.076 17.344H4.69603V28H0.55603ZM4.69603 13.456H11.5C12.724 13.456 13.672 13.192 14.344 12.664C15.016 12.136 15.352 11.26 15.352 10.036C15.352 8.83599 15.016 7.97199 14.344 7.44399C13.672 6.91599 12.724 6.65199 11.5 6.65199H4.69603V13.456Z" fill="#141414"/>
<path d="M29.2691 28.396C27.6851 28.396 26.2571 28.024 24.9851 27.28C23.7371 26.512 22.7411 25.456 21.9971 24.112C21.2771 22.744 20.9171 21.148 20.9171 19.324C20.9171 17.5 21.2771 15.916 21.9971 14.572C22.7411 13.204 23.7371 12.148 24.9851 11.404C26.2571 10.636 27.6851 10.252 29.2691 10.252C30.9011 10.252 32.3411 10.636 33.5891 11.404C34.8611 12.148 35.8571 13.204 36.5771 14.572C37.2971 15.916 37.6571 17.5 37.6571 19.324C37.6571 21.148 37.2971 22.744 36.5771 24.112C35.8571 25.456 34.8611 26.512 33.5891 27.28C32.3411 28.024 30.9011 28.396 29.2691 28.396ZM29.2691 24.724C30.5411 24.724 31.5731 24.256 32.3651 23.32C33.1811 22.384 33.5891 21.052 33.5891 19.324C33.5891 17.596 33.1811 16.264 32.3651 15.328C31.5731 14.392 30.5411 13.924 29.2691 13.924C28.0211 13.924 27.0011 14.392 26.2091 15.328C25.4171 16.264 25.0211 17.596 25.0211 19.324C25.0211 21.052 25.4171 22.384 26.2091 23.32C27.0011 24.256 28.0211 24.724 29.2691 24.724Z" fill="#141414"/>
<path d="M41.1531 28V10.684H44.8251L45.0771 13.132C45.5091 12.268 46.1811 11.572 47.0931 11.044C48.0291 10.516 49.0131 10.252 50.0451 10.252C50.4531 10.252 50.8251 10.276 51.1611 10.324C51.4971 10.372 51.7851 10.432 52.0251 10.504V14.428C51.7131 14.332 51.3411 14.26 50.9091 14.212C50.5011 14.14 50.0211 14.104 49.4691 14.104C48.2931 14.104 47.2851 14.488 46.4451 15.256C45.6291 16.024 45.2211 17.104 45.2211 18.496V28H41.1531Z" fill="#141414"/>
<path d="M61.9912 28.396C60.2872 28.396 58.9792 28.084 58.0672 27.46C57.1792 26.836 56.7352 25.588 56.7352 23.716V14.176H53.4232V10.684H56.7352V4.59999H60.7672V10.684H65.5552V14.176H60.7672V22.672C60.7672 23.488 60.9592 24.04 61.3432 24.328C61.7512 24.616 62.3272 24.76 63.0712 24.76C63.5272 24.76 63.9832 24.688 64.4392 24.544C64.9192 24.4 65.2912 24.256 65.5552 24.112V27.82C65.1232 27.988 64.5832 28.12 63.9352 28.216C63.2872 28.336 62.6392 28.396 61.9912 28.396Z" fill="#141414"/>
<path d="M70.5507 28V14.176H67.2747V10.684H70.5507V7.58799C70.5507 5.45199 71.0427 3.97599 72.0267 3.15999C73.0107 2.34399 74.4147 1.93599 76.2387 1.93599C76.8147 1.93599 77.3907 1.97199 77.9667 2.04399C78.5667 2.11599 79.0467 2.19999 79.4067 2.29599V5.96799C79.0707 5.84799 78.6987 5.75199 78.2907 5.67999C77.9067 5.58399 77.5107 5.53599 77.1027 5.53599C76.2867 5.53599 75.6627 5.73999 75.2307 6.14799C74.7987 6.53199 74.5827 7.17999 74.5827 8.09199V10.684H79.4067V14.176H74.5827V28H70.5507Z" fill="#141414"/>
<path d="M89.4918 28.396C87.9078 28.396 86.4798 28.024 85.2078 27.28C83.9598 26.512 82.9638 25.456 82.2198 24.112C81.4998 22.744 81.1398 21.148 81.1398 19.324C81.1398 17.5 81.4998 15.916 82.2198 14.572C82.9638 13.204 83.9598 12.148 85.2078 11.404C86.4798 10.636 87.9078 10.252 89.4918 10.252C91.1238 10.252 92.5638 10.636 93.8118 11.404C95.0838 12.148 96.0798 13.204 96.7998 14.572C97.5198 15.916 97.8798 17.5 97.8798 19.324C97.8798 21.148 97.5198 22.744 96.7998 24.112C96.0798 25.456 95.0838 26.512 93.8118 27.28C92.5638 28.024 91.1238 28.396 89.4918 28.396ZM89.4918 24.724C90.7638 24.724 91.7958 24.256 92.5878 23.32C93.4038 22.384 93.8118 21.052 93.8118 19.324C93.8118 17.596 93.4038 16.264 92.5878 15.328C91.7958 14.392 90.7638 13.924 89.4918 13.924C88.2438 13.924 87.2238 14.392 86.4318 15.328C85.6398 16.264 85.2438 17.596 85.2438 19.324C85.2438 21.052 85.6398 22.384 86.4318 23.32C87.2238 24.256 88.2438 24.724 89.4918 24.724ZM86.8998 8.99199L85.6398 7.51599L93.0558 0.135986L95.5398 3.08799L86.8998 8.99199Z" fill="#141414"/>
<path d="M101.376 28V2.33199H105.444V28H101.376Z" fill="#141414"/>
<path d="M110.424 28V10.684H114.456V28H110.424ZM112.404 7.83999C111.708 7.83999 111.108 7.58799 110.604 7.08399C110.1 6.57999 109.848 5.97999 109.848 5.28399C109.848 4.58799 110.1 3.98799 110.604 3.48399C111.108 2.97999 111.708 2.72799 112.404 2.72799C113.1 2.72799 113.7 2.97999 114.204 3.48399C114.708 3.98799 114.96 4.58799 114.96 5.28399C114.96 5.97999 114.708 6.57999 114.204 7.08399C113.7 7.58799 113.1 7.83999 112.404 7.83999Z" fill="#141414"/>
<path d="M126.793 28.396C125.209 28.396 123.781 28.024 122.509 27.28C121.261 26.512 120.265 25.456 119.521 24.112C118.801 22.744 118.441 21.148 118.441 19.324C118.441 17.5 118.801 15.916 119.521 14.572C120.265 13.204 121.261 12.148 122.509 11.404C123.781 10.636 125.209 10.252 126.793 10.252C128.425 10.252 129.865 10.636 131.113 11.404C132.385 12.148 133.381 13.204 134.101 14.572C134.821 15.916 135.181 17.5 135.181 19.324C135.181 21.148 134.821 22.744 134.101 24.112C133.381 25.456 132.385 26.512 131.113 27.28C129.865 28.024 128.425 28.396 126.793 28.396ZM126.793 24.724C128.065 24.724 129.097 24.256 129.889 23.32C130.705 22.384 131.113 21.052 131.113 19.324C131.113 17.596 130.705 16.264 129.889 15.328C129.097 14.392 128.065 13.924 126.793 13.924C125.545 13.924 124.525 14.392 123.733 15.328C122.941 16.264 122.545 17.596 122.545 19.324C122.545 21.052 122.941 22.384 123.733 23.32C124.525 24.256 125.545 24.724 126.793 24.724Z" fill="#141414"/>
</svg>
